<svg xmlns="http://www.w3.org/2000/svg" xmlns:xlink="http://www.w3.org/1999/xlink" width="600" height="400" viewBox="0 0 2400 1600">
<defs>
  <clipPath id="clip470">
    <rect x="0" y="0" width="2400" height="1600"></rect>
  </clipPath>
</defs>
<path clip-path="url(#clip470)" d="M0 1600 L2400 1600 L2400 0 L0 0  Z" fill="#ffffff" fill-rule="evenodd" fill-opacity="1"></path>
<defs>
  <clipPath id="clip471">
    <rect x="480" y="0" width="1681" height="1600"></rect>
  </clipPath>
</defs>
<path clip-path="url(#clip470)" d="M156.112 1486.45 L2352.76 1486.45 L2352.76 47.2441 L156.112 47.2441  Z" fill="#ffffff" fill-rule="evenodd" fill-opacity="1"></path>
<defs>
  <clipPath id="clip472">
    <rect x="156" y="47" width="2198" height="1440"></rect>
  </clipPath>
</defs>
<polyline clip-path="url(#clip472)" style="stroke:#000000; stroke-linecap:round; stroke-linejoin:round; stroke-width:2; stroke-opacity:0.1; fill:none" points="218.281,1486.45 218.281,47.2441 "></polyline>
<polyline clip-path="url(#clip472)" style="stroke:#000000; stroke-linecap:round; stroke-linejoin:round; stroke-width:2; stroke-opacity:0.1; fill:none" points="736.358,1486.45 736.358,47.2441 "></polyline>
<polyline clip-path="url(#clip472)" style="stroke:#000000; stroke-linecap:round; stroke-linejoin:round; stroke-width:2; stroke-opacity:0.1; fill:none" points="1254.43,1486.45 1254.43,47.2441 "></polyline>
<polyline clip-path="url(#clip472)" style="stroke:#000000; stroke-linecap:round; stroke-linejoin:round; stroke-width:2; stroke-opacity:0.1; fill:none" points="1772.51,1486.45 1772.51,47.2441 "></polyline>
<polyline clip-path="url(#clip472)" style="stroke:#000000; stroke-linecap:round; stroke-linejoin:round; stroke-width:2; stroke-opacity:0.1; fill:none" points="2290.59,1486.45 2290.59,47.2441 "></polyline>
<polyline clip-path="url(#clip470)" style="stroke:#000000; stroke-linecap:round; stroke-linejoin:round; stroke-width:4; stroke-opacity:1; fill:none" points="156.112,1486.45 2352.76,1486.45 "></polyline>
<polyline clip-path="url(#clip470)" style="stroke:#000000; stroke-linecap:round; stroke-linejoin:round; stroke-width:4; stroke-opacity:1; fill:none" points="218.281,1486.45 218.281,1467.55 "></polyline>
<polyline clip-path="url(#clip470)" style="stroke:#000000; stroke-linecap:round; stroke-linejoin:round; stroke-width:4; stroke-opacity:1; fill:none" points="736.358,1486.45 736.358,1467.55 "></polyline>
<polyline clip-path="url(#clip470)" style="stroke:#000000; stroke-linecap:round; stroke-linejoin:round; stroke-width:4; stroke-opacity:1; fill:none" points="1254.43,1486.45 1254.43,1467.55 "></polyline>
<polyline clip-path="url(#clip470)" style="stroke:#000000; stroke-linecap:round; stroke-linejoin:round; stroke-width:4; stroke-opacity:1; fill:none" points="1772.51,1486.45 1772.51,1467.55 "></polyline>
<polyline clip-path="url(#clip470)" style="stroke:#000000; stroke-linecap:round; stroke-linejoin:round; stroke-width:4; stroke-opacity:1; fill:none" points="2290.59,1486.45 2290.59,1467.55 "></polyline>
<path clip-path="url(#clip470)" d="M180.585 1517.37 Q176.974 1517.37 175.145 1520.93 Q173.339 1524.47 173.339 1531.6 Q173.339 1538.71 175.145 1542.27 Q176.974 1545.82 180.585 1545.82 Q184.219 1545.82 186.025 1542.27 Q187.853 1538.71 187.853 1531.6 Q187.853 1524.47 186.025 1520.93 Q184.219 1517.37 180.585 1517.37 M180.585 1513.66 Q186.395 1513.66 189.45 1518.27 Q192.529 1522.85 192.529 1531.6 Q192.529 1540.33 189.45 1544.94 Q186.395 1549.52 180.585 1549.52 Q174.775 1549.52 171.696 1544.94 Q168.64 1540.33 168.64 1531.6 Q168.64 1522.85 171.696 1518.27 Q174.775 1513.66 180.585 1513.66 Z" fill="#000000" fill-rule="nonzero" fill-opacity="1"></path><path clip-path="url(#clip470)" d="M200.747 1542.97 L205.631 1542.97 L205.631 1548.85 L200.747 1548.85 L200.747 1542.97 Z" fill="#000000" fill-rule="nonzero" fill-opacity="1"></path><path clip-path="url(#clip470)" d="M225.816 1517.37 Q222.205 1517.37 220.376 1520.93 Q218.571 1524.47 218.571 1531.6 Q218.571 1538.71 220.376 1542.27 Q222.205 1545.82 225.816 1545.82 Q229.45 1545.82 231.256 1542.27 Q233.084 1538.71 233.084 1531.6 Q233.084 1524.47 231.256 1520.93 Q229.45 1517.37 225.816 1517.37 M225.816 1513.66 Q231.626 1513.66 234.682 1518.27 Q237.76 1522.85 237.76 1531.6 Q237.76 1540.33 234.682 1544.94 Q231.626 1549.52 225.816 1549.52 Q220.006 1549.52 216.927 1544.94 Q213.872 1540.33 213.872 1531.6 Q213.872 1522.85 216.927 1518.27 Q220.006 1513.66 225.816 1513.66 Z" fill="#000000" fill-rule="nonzero" fill-opacity="1"></path><path clip-path="url(#clip470)" d="M255.978 1517.37 Q252.367 1517.37 250.538 1520.93 Q248.733 1524.47 248.733 1531.6 Q248.733 1538.71 250.538 1542.27 Q252.367 1545.82 255.978 1545.82 Q259.612 1545.82 261.418 1542.27 Q263.246 1538.71 263.246 1531.6 Q263.246 1524.47 261.418 1520.93 Q259.612 1517.37 255.978 1517.37 M255.978 1513.66 Q261.788 1513.66 264.844 1518.27 Q267.922 1522.85 267.922 1531.6 Q267.922 1540.33 264.844 1544.94 Q261.788 1549.52 255.978 1549.52 Q250.168 1549.52 247.089 1544.94 Q244.033 1540.33 244.033 1531.6 Q244.033 1522.85 247.089 1518.27 Q250.168 1513.66 255.978 1513.66 Z" fill="#000000" fill-rule="nonzero" fill-opacity="1"></path><path clip-path="url(#clip470)" d="M699.159 1517.37 Q695.548 1517.37 693.719 1520.93 Q691.913 1524.47 691.913 1531.6 Q691.913 1538.71 693.719 1542.27 Q695.548 1545.82 699.159 1545.82 Q702.793 1545.82 704.599 1542.27 Q706.427 1538.71 706.427 1531.6 Q706.427 1524.47 704.599 1520.93 Q702.793 1517.37 699.159 1517.37 M699.159 1513.66 Q704.969 1513.66 708.024 1518.27 Q711.103 1522.85 711.103 1531.6 Q711.103 1540.33 708.024 1544.94 Q704.969 1549.52 699.159 1549.52 Q693.349 1549.52 690.27 1544.94 Q687.214 1540.33 687.214 1531.6 Q687.214 1522.85 690.27 1518.27 Q693.349 1513.66 699.159 1513.66 Z" fill="#000000" fill-rule="nonzero" fill-opacity="1"></path><path clip-path="url(#clip470)" d="M719.321 1542.97 L724.205 1542.97 L724.205 1548.85 L719.321 1548.85 L719.321 1542.97 Z" fill="#000000" fill-rule="nonzero" fill-opacity="1"></path><path clip-path="url(#clip470)" d="M738.418 1544.91 L754.737 1544.91 L754.737 1548.85 L732.793 1548.85 L732.793 1544.91 Q735.455 1542.16 740.038 1537.53 Q744.645 1532.88 745.825 1531.53 Q748.071 1529.01 748.95 1527.27 Q749.853 1525.51 749.853 1523.82 Q749.853 1521.07 747.909 1519.33 Q745.987 1517.6 742.885 1517.6 Q740.686 1517.6 738.233 1518.36 Q735.802 1519.13 733.024 1520.68 L733.024 1515.95 Q735.848 1514.82 738.302 1514.24 Q740.756 1513.66 742.793 1513.66 Q748.163 1513.66 751.358 1516.35 Q754.552 1519.03 754.552 1523.52 Q754.552 1525.65 753.742 1527.57 Q752.955 1529.47 750.848 1532.07 Q750.27 1532.74 747.168 1535.95 Q744.066 1539.15 738.418 1544.91 Z" fill="#000000" fill-rule="nonzero" fill-opacity="1"></path><path clip-path="url(#clip470)" d="M764.598 1514.29 L782.955 1514.29 L782.955 1518.22 L768.881 1518.22 L768.881 1526.7 Q769.899 1526.35 770.918 1526.19 Q771.936 1526 772.955 1526 Q778.742 1526 782.121 1529.17 Q785.501 1532.34 785.501 1537.76 Q785.501 1543.34 782.029 1546.44 Q778.557 1549.52 772.237 1549.52 Q770.061 1549.52 767.793 1549.15 Q765.547 1548.78 763.14 1548.04 L763.14 1543.34 Q765.223 1544.47 767.445 1545.03 Q769.668 1545.58 772.144 1545.58 Q776.149 1545.58 778.487 1543.48 Q780.825 1541.37 780.825 1537.76 Q780.825 1534.15 778.487 1532.04 Q776.149 1529.94 772.144 1529.94 Q770.27 1529.94 768.395 1530.35 Q766.543 1530.77 764.598 1531.65 L764.598 1514.29 Z" fill="#000000" fill-rule="nonzero" fill-opacity="1"></path><path clip-path="url(#clip470)" d="M1216.74 1517.37 Q1213.13 1517.37 1211.3 1520.93 Q1209.49 1524.47 1209.49 1531.6 Q1209.49 1538.71 1211.3 1542.27 Q1213.13 1545.82 1216.74 1545.82 Q1220.37 1545.82 1222.18 1542.27 Q1224.01 1538.71 1224.01 1531.6 Q1224.01 1524.47 1222.18 1520.93 Q1220.37 1517.37 1216.74 1517.37 M1216.74 1513.66 Q1222.55 1513.66 1225.6 1518.27 Q1228.68 1522.85 1228.68 1531.6 Q1228.68 1540.33 1225.6 1544.94 Q1222.55 1549.52 1216.74 1549.52 Q1210.93 1549.52 1207.85 1544.94 Q1204.79 1540.33 1204.79 1531.6 Q1204.79 1522.85 1207.85 1518.27 Q1210.93 1513.66 1216.74 1513.66 Z" fill="#000000" fill-rule="nonzero" fill-opacity="1"></path><path clip-path="url(#clip470)" d="M1236.9 1542.97 L1241.78 1542.97 L1241.78 1548.85 L1236.9 1548.85 L1236.9 1542.97 Z" fill="#000000" fill-rule="nonzero" fill-opacity="1"></path><path clip-path="url(#clip470)" d="M1252.02 1514.29 L1270.37 1514.29 L1270.37 1518.22 L1256.3 1518.22 L1256.3 1526.7 Q1257.32 1526.35 1258.33 1526.19 Q1259.35 1526 1260.37 1526 Q1266.16 1526 1269.54 1529.17 Q1272.92 1532.34 1272.92 1537.76 Q1272.92 1543.34 1269.45 1546.44 Q1265.97 1549.52 1259.65 1549.52 Q1257.48 1549.52 1255.21 1549.15 Q1252.96 1548.78 1250.56 1548.04 L1250.56 1543.34 Q1252.64 1544.47 1254.86 1545.03 Q1257.08 1545.58 1259.56 1545.58 Q1263.57 1545.58 1265.9 1543.48 Q1268.24 1541.37 1268.24 1537.76 Q1268.24 1534.15 1265.9 1532.04 Q1263.57 1529.94 1259.56 1529.94 Q1257.69 1529.94 1255.81 1530.35 Q1253.96 1530.77 1252.02 1531.65 L1252.02 1514.29 Z" fill="#000000" fill-rule="nonzero" fill-opacity="1"></path><path clip-path="url(#clip470)" d="M1292.13 1517.37 Q1288.52 1517.37 1286.69 1520.93 Q1284.89 1524.47 1284.89 1531.6 Q1284.89 1538.71 1286.69 1542.27 Q1288.52 1545.82 1292.13 1545.82 Q1295.76 1545.82 1297.57 1542.27 Q1299.4 1538.71 1299.4 1531.6 Q1299.4 1524.47 1297.57 1520.93 Q1295.76 1517.37 1292.13 1517.37 M1292.13 1513.66 Q1297.94 1513.66 1301 1518.27 Q1304.07 1522.85 1304.07 1531.6 Q1304.07 1540.33 1301 1544.94 Q1297.94 1549.52 1292.13 1549.52 Q1286.32 1549.52 1283.24 1544.94 Q1280.19 1540.33 1280.19 1531.6 Q1280.19 1522.85 1283.24 1518.27 Q1286.32 1513.66 1292.13 1513.66 Z" fill="#000000" fill-rule="nonzero" fill-opacity="1"></path><path clip-path="url(#clip470)" d="M1735.31 1517.37 Q1731.7 1517.37 1729.87 1520.93 Q1728.07 1524.47 1728.07 1531.6 Q1728.07 1538.71 1729.87 1542.27 Q1731.7 1545.82 1735.31 1545.82 Q1738.95 1545.82 1740.75 1542.27 Q1742.58 1538.71 1742.58 1531.6 Q1742.58 1524.47 1740.75 1520.93 Q1738.95 1517.37 1735.31 1517.37 M1735.31 1513.66 Q1741.12 1513.66 1744.18 1518.27 Q1747.26 1522.85 1747.26 1531.6 Q1747.26 1540.33 1744.18 1544.94 Q1741.12 1549.52 1735.31 1549.52 Q1729.5 1549.52 1726.42 1544.94 Q1723.37 1540.33 1723.37 1531.6 Q1723.37 1522.85 1726.42 1518.27 Q1729.5 1513.66 1735.31 1513.66 Z" fill="#000000" fill-rule="nonzero" fill-opacity="1"></path><path clip-path="url(#clip470)" d="M1755.47 1542.97 L1760.36 1542.97 L1760.36 1548.85 L1755.47 1548.85 L1755.47 1542.97 Z" fill="#000000" fill-rule="nonzero" fill-opacity="1"></path><path clip-path="url(#clip470)" d="M1769.36 1514.29 L1791.58 1514.29 L1791.58 1516.28 L1779.04 1548.85 L1774.15 1548.85 L1785.96 1518.22 L1769.36 1518.22 L1769.36 1514.29 Z" fill="#000000" fill-rule="nonzero" fill-opacity="1"></path><path clip-path="url(#clip470)" d="M1800.75 1514.29 L1819.11 1514.29 L1819.11 1518.22 L1805.03 1518.22 L1805.03 1526.7 Q1806.05 1526.35 1807.07 1526.19 Q1808.09 1526 1809.11 1526 Q1814.89 1526 1818.27 1529.17 Q1821.65 1532.34 1821.65 1537.76 Q1821.65 1543.34 1818.18 1546.44 Q1814.71 1549.52 1808.39 1549.52 Q1806.21 1549.52 1803.95 1549.15 Q1801.7 1548.78 1799.29 1548.04 L1799.29 1543.34 Q1801.38 1544.47 1803.6 1545.03 Q1805.82 1545.58 1808.3 1545.58 Q1812.3 1545.58 1814.64 1543.48 Q1816.98 1541.37 1816.98 1537.76 Q1816.98 1534.15 1814.64 1532.04 Q1812.3 1529.94 1808.3 1529.94 Q1806.42 1529.94 1804.55 1530.35 Q1802.7 1530.77 1800.75 1531.65 L1800.75 1514.29 Z" fill="#000000" fill-rule="nonzero" fill-opacity="1"></path><path clip-path="url(#clip470)" d="M2242.66 1544.91 L2250.3 1544.91 L2250.3 1518.55 L2241.99 1520.21 L2241.99 1515.95 L2250.25 1514.29 L2254.93 1514.29 L2254.93 1544.91 L2262.57 1544.91 L2262.57 1548.85 L2242.66 1548.85 L2242.66 1544.91 Z" fill="#000000" fill-rule="nonzero" fill-opacity="1"></path><path clip-path="url(#clip470)" d="M2272.01 1542.97 L2276.89 1542.97 L2276.89 1548.85 L2272.01 1548.85 L2272.01 1542.97 Z" fill="#000000" fill-rule="nonzero" fill-opacity="1"></path><path clip-path="url(#clip470)" d="M2297.08 1517.37 Q2293.47 1517.37 2291.64 1520.93 Q2289.83 1524.47 2289.83 1531.6 Q2289.83 1538.71 2291.64 1542.27 Q2293.47 1545.82 2297.08 1545.82 Q2300.71 1545.82 2302.52 1542.27 Q2304.35 1538.71 2304.35 1531.6 Q2304.35 1524.47 2302.52 1520.93 Q2300.71 1517.37 2297.08 1517.37 M2297.08 1513.66 Q2302.89 1513.66 2305.95 1518.27 Q2309.02 1522.85 2309.02 1531.6 Q2309.02 1540.33 2305.95 1544.94 Q2302.89 1549.52 2297.08 1549.52 Q2291.27 1549.52 2288.19 1544.94 Q2285.14 1540.33 2285.14 1531.6 Q2285.14 1522.85 2288.19 1518.27 Q2291.27 1513.66 2297.08 1513.66 Z" fill="#000000" fill-rule="nonzero" fill-opacity="1"></path><path clip-path="url(#clip470)" d="M2327.24 1517.37 Q2323.63 1517.37 2321.8 1520.93 Q2320 1524.47 2320 1531.6 Q2320 1538.71 2321.8 1542.27 Q2323.63 1545.82 2327.24 1545.82 Q2330.88 1545.82 2332.68 1542.27 Q2334.51 1538.71 2334.51 1531.6 Q2334.51 1524.47 2332.68 1520.93 Q2330.88 1517.37 2327.24 1517.37 M2327.24 1513.66 Q2333.05 1513.66 2336.11 1518.27 Q2339.19 1522.85 2339.19 1531.6 Q2339.19 1540.33 2336.11 1544.94 Q2333.05 1549.52 2327.24 1549.52 Q2321.43 1549.52 2318.35 1544.94 Q2315.3 1540.33 2315.3 1531.6 Q2315.3 1522.85 2318.35 1518.27 Q2321.43 1513.66 2327.24 1513.66 Z" fill="#000000" fill-rule="nonzero" fill-opacity="1"></path><polyline clip-path="url(#clip472)" style="stroke:#000000; stroke-linecap:round; stroke-linejoin:round; stroke-width:2; stroke-opacity:0.1; fill:none" points="156.112,1445.72 2352.76,1445.72 "></polyline>
<polyline clip-path="url(#clip472)" style="stroke:#000000; stroke-linecap:round; stroke-linejoin:round; stroke-width:2; stroke-opacity:0.1; fill:none" points="156.112,1182.89 2352.76,1182.89 "></polyline>
<polyline clip-path="url(#clip472)" style="stroke:#000000; stroke-linecap:round; stroke-linejoin:round; stroke-width:2; stroke-opacity:0.1; fill:none" points="156.112,920.06 2352.76,920.06 "></polyline>
<polyline clip-path="url(#clip472)" style="stroke:#000000; stroke-linecap:round; stroke-linejoin:round; stroke-width:2; stroke-opacity:0.1; fill:none" points="156.112,657.233 2352.76,657.233 "></polyline>
<polyline clip-path="url(#clip472)" style="stroke:#000000; stroke-linecap:round; stroke-linejoin:round; stroke-width:2; stroke-opacity:0.1; fill:none" points="156.112,394.405 2352.76,394.405 "></polyline>
<polyline clip-path="url(#clip472)" style="stroke:#000000; stroke-linecap:round; stroke-linejoin:round; stroke-width:2; stroke-opacity:0.1; fill:none" points="156.112,131.578 2352.76,131.578 "></polyline>
<polyline clip-path="url(#clip470)" style="stroke:#000000; stroke-linecap:round; stroke-linejoin:round; stroke-width:4; stroke-opacity:1; fill:none" points="156.112,1486.45 156.112,47.2441 "></polyline>
<polyline clip-path="url(#clip470)" style="stroke:#000000; stroke-linecap:round; stroke-linejoin:round; stroke-width:4; stroke-opacity:1; fill:none" points="156.112,1445.72 175.01,1445.72 "></polyline>
<polyline clip-path="url(#clip470)" style="stroke:#000000; stroke-linecap:round; stroke-linejoin:round; stroke-width:4; stroke-opacity:1; fill:none" points="156.112,1182.89 175.01,1182.89 "></polyline>
<polyline clip-path="url(#clip470)" style="stroke:#000000; stroke-linecap:round; stroke-linejoin:round; stroke-width:4; stroke-opacity:1; fill:none" points="156.112,920.06 175.01,920.06 "></polyline>
<polyline clip-path="url(#clip470)" style="stroke:#000000; stroke-linecap:round; stroke-linejoin:round; stroke-width:4; stroke-opacity:1; fill:none" points="156.112,657.233 175.01,657.233 "></polyline>
<polyline clip-path="url(#clip470)" style="stroke:#000000; stroke-linecap:round; stroke-linejoin:round; stroke-width:4; stroke-opacity:1; fill:none" points="156.112,394.405 175.01,394.405 "></polyline>
<polyline clip-path="url(#clip470)" style="stroke:#000000; stroke-linecap:round; stroke-linejoin:round; stroke-width:4; stroke-opacity:1; fill:none" points="156.112,131.578 175.01,131.578 "></polyline>
<path clip-path="url(#clip470)" d="M62.9365 1431.51 Q59.3254 1431.51 57.4967 1435.08 Q55.6912 1438.62 55.6912 1445.75 Q55.6912 1452.86 57.4967 1456.42 Q59.3254 1459.96 62.9365 1459.96 Q66.5707 1459.96 68.3763 1456.42 Q70.205 1452.86 70.205 1445.75 Q70.205 1438.62 68.3763 1435.08 Q66.5707 1431.51 62.9365 1431.51 M62.9365 1427.81 Q68.7467 1427.81 71.8022 1432.42 Q74.8809 1437 74.8809 1445.75 Q74.8809 1454.48 71.8022 1459.08 Q68.7467 1463.67 62.9365 1463.67 Q57.1264 1463.67 54.0477 1459.08 Q50.9921 1454.48 50.9921 1445.75 Q50.9921 1437 54.0477 1432.42 Q57.1264 1427.81 62.9365 1427.81 Z" fill="#000000" fill-rule="nonzero" fill-opacity="1"></path><path clip-path="url(#clip470)" d="M83.0984 1457.12 L87.9827 1457.12 L87.9827 1463 L83.0984 1463 L83.0984 1457.12 Z" fill="#000000" fill-rule="nonzero" fill-opacity="1"></path><path clip-path="url(#clip470)" d="M108.168 1431.51 Q104.557 1431.51 102.728 1435.08 Q100.922 1438.62 100.922 1445.75 Q100.922 1452.86 102.728 1456.42 Q104.557 1459.96 108.168 1459.96 Q111.802 1459.96 113.608 1456.42 Q115.436 1452.86 115.436 1445.75 Q115.436 1438.62 113.608 1435.08 Q111.802 1431.51 108.168 1431.51 M108.168 1427.81 Q113.978 1427.81 117.033 1432.42 Q120.112 1437 120.112 1445.75 Q120.112 1454.48 117.033 1459.08 Q113.978 1463.67 108.168 1463.67 Q102.358 1463.67 99.2789 1459.08 Q96.2234 1454.48 96.2234 1445.75 Q96.2234 1437 99.2789 1432.42 Q102.358 1427.81 108.168 1427.81 Z" fill="#000000" fill-rule="nonzero" fill-opacity="1"></path><path clip-path="url(#clip470)" d="M63.9319 1168.69 Q60.3208 1168.69 58.4921 1172.25 Q56.6865 1175.79 56.6865 1182.92 Q56.6865 1190.03 58.4921 1193.59 Q60.3208 1197.14 63.9319 1197.14 Q67.5661 1197.14 69.3717 1193.59 Q71.2004 1190.03 71.2004 1182.92 Q71.2004 1175.79 69.3717 1172.25 Q67.5661 1168.69 63.9319 1168.69 M63.9319 1164.98 Q69.742 1164.98 72.7976 1169.59 Q75.8763 1174.17 75.8763 1182.92 Q75.8763 1191.65 72.7976 1196.26 Q69.742 1200.84 63.9319 1200.84 Q58.1217 1200.84 55.043 1196.26 Q51.9875 1191.65 51.9875 1182.92 Q51.9875 1174.17 55.043 1169.59 Q58.1217 1164.98 63.9319 1164.98 Z" fill="#000000" fill-rule="nonzero" fill-opacity="1"></path><path clip-path="url(#clip470)" d="M84.0938 1194.29 L88.978 1194.29 L88.978 1200.17 L84.0938 1200.17 L84.0938 1194.29 Z" fill="#000000" fill-rule="nonzero" fill-opacity="1"></path><path clip-path="url(#clip470)" d="M99.2095 1165.61 L117.566 1165.61 L117.566 1169.54 L103.492 1169.54 L103.492 1178.02 Q104.51 1177.67 105.529 1177.51 Q106.547 1177.32 107.566 1177.32 Q113.353 1177.32 116.733 1180.49 Q120.112 1183.66 120.112 1189.08 Q120.112 1194.66 116.64 1197.76 Q113.168 1200.84 106.848 1200.84 Q104.672 1200.84 102.404 1200.47 Q100.159 1200.1 97.7511 1199.36 L97.7511 1194.66 Q99.8345 1195.79 102.057 1196.35 Q104.279 1196.9 106.756 1196.9 Q110.76 1196.9 113.098 1194.8 Q115.436 1192.69 115.436 1189.08 Q115.436 1185.47 113.098 1183.36 Q110.76 1181.26 106.756 1181.26 Q104.881 1181.26 103.006 1181.67 Q101.154 1182.09 99.2095 1182.97 L99.2095 1165.61 Z" fill="#000000" fill-rule="nonzero" fill-opacity="1"></path><path clip-path="url(#clip470)" d="M53.7467 933.405 L61.3856 933.405 L61.3856 907.04 L53.0754 908.706 L53.0754 904.447 L61.3393 902.78 L66.0152 902.78 L66.0152 933.405 L73.654 933.405 L73.654 937.34 L53.7467 937.34 L53.7467 933.405 Z" fill="#000000" fill-rule="nonzero" fill-opacity="1"></path><path clip-path="url(#clip470)" d="M83.0984 931.461 L87.9827 931.461 L87.9827 937.34 L83.0984 937.34 L83.0984 931.461 Z" fill="#000000" fill-rule="nonzero" fill-opacity="1"></path><path clip-path="url(#clip470)" d="M108.168 905.859 Q104.557 905.859 102.728 909.424 Q100.922 912.966 100.922 920.095 Q100.922 927.202 102.728 930.766 Q104.557 934.308 108.168 934.308 Q111.802 934.308 113.608 930.766 Q115.436 927.202 115.436 920.095 Q115.436 912.966 113.608 909.424 Q111.802 905.859 108.168 905.859 M108.168 902.155 Q113.978 902.155 117.033 906.762 Q120.112 911.345 120.112 920.095 Q120.112 928.822 117.033 933.428 Q113.978 938.012 108.168 938.012 Q102.358 938.012 99.2789 933.428 Q96.2234 928.822 96.2234 920.095 Q96.2234 911.345 99.2789 906.762 Q102.358 902.155 108.168 902.155 Z" fill="#000000" fill-rule="nonzero" fill-opacity="1"></path><path clip-path="url(#clip470)" d="M54.7421 670.578 L62.381 670.578 L62.381 644.212 L54.0708 645.879 L54.0708 641.619 L62.3347 639.953 L67.0106 639.953 L67.0106 670.578 L74.6494 670.578 L74.6494 674.513 L54.7421 674.513 L54.7421 670.578 Z" fill="#000000" fill-rule="nonzero" fill-opacity="1"></path><path clip-path="url(#clip470)" d="M84.0938 668.633 L88.978 668.633 L88.978 674.513 L84.0938 674.513 L84.0938 668.633 Z" fill="#000000" fill-rule="nonzero" fill-opacity="1"></path><path clip-path="url(#clip470)" d="M99.2095 639.953 L117.566 639.953 L117.566 643.888 L103.492 643.888 L103.492 652.36 Q104.51 652.013 105.529 651.851 Q106.547 651.666 107.566 651.666 Q113.353 651.666 116.733 654.837 Q120.112 658.008 120.112 663.425 Q120.112 669.004 116.64 672.105 Q113.168 675.184 106.848 675.184 Q104.672 675.184 102.404 674.814 Q100.159 674.443 97.7511 673.703 L97.7511 669.004 Q99.8345 670.138 102.057 670.693 Q104.279 671.249 106.756 671.249 Q110.76 671.249 113.098 669.142 Q115.436 667.036 115.436 663.425 Q115.436 659.814 113.098 657.707 Q110.76 655.601 106.756 655.601 Q104.881 655.601 103.006 656.018 Q101.154 656.434 99.2095 657.314 L99.2095 639.953 Z" fill="#000000" fill-rule="nonzero" fill-opacity="1"></path><path clip-path="url(#clip470)" d="M56.9643 407.75 L73.2837 407.75 L73.2837 411.685 L51.3393 411.685 L51.3393 407.75 Q54.0014 404.995 58.5847 400.366 Q63.1911 395.713 64.3717 394.37 Q66.617 391.847 67.4967 390.111 Q68.3994 388.352 68.3994 386.662 Q68.3994 383.908 66.455 382.171 Q64.5337 380.435 61.4319 380.435 Q59.2328 380.435 56.7791 381.199 Q54.3486 381.963 51.5708 383.514 L51.5708 378.792 Q54.3949 377.658 56.8486 377.079 Q59.3023 376.5 61.3393 376.5 Q66.7096 376.5 69.9041 379.185 Q73.0985 381.871 73.0985 386.361 Q73.0985 388.491 72.2883 390.412 Q71.5013 392.31 69.3948 394.903 Q68.8161 395.574 65.7143 398.792 Q62.6124 401.986 56.9643 407.75 Z" fill="#000000" fill-rule="nonzero" fill-opacity="1"></path><path clip-path="url(#clip470)" d="M83.0984 405.806 L87.9827 405.806 L87.9827 411.685 L83.0984 411.685 L83.0984 405.806 Z" fill="#000000" fill-rule="nonzero" fill-opacity="1"></path><path clip-path="url(#clip470)" d="M108.168 380.204 Q104.557 380.204 102.728 383.769 Q100.922 387.31 100.922 394.44 Q100.922 401.546 102.728 405.111 Q104.557 408.653 108.168 408.653 Q111.802 408.653 113.608 405.111 Q115.436 401.546 115.436 394.44 Q115.436 387.31 113.608 383.769 Q111.802 380.204 108.168 380.204 M108.168 376.5 Q113.978 376.5 117.033 381.107 Q120.112 385.69 120.112 394.44 Q120.112 403.167 117.033 407.773 Q113.978 412.356 108.168 412.356 Q102.358 412.356 99.2789 407.773 Q96.2234 403.167 96.2234 394.44 Q96.2234 385.69 99.2789 381.107 Q102.358 376.5 108.168 376.5 Z" fill="#000000" fill-rule="nonzero" fill-opacity="1"></path><path clip-path="url(#clip470)" d="M57.9597 144.922 L74.279 144.922 L74.279 148.858 L52.3347 148.858 L52.3347 144.922 Q54.9967 142.168 59.58 137.538 Q64.1865 132.885 65.367 131.543 Q67.6124 129.02 68.492 127.284 Q69.3948 125.524 69.3948 123.835 Q69.3948 121.08 67.4504 119.344 Q65.5291 117.608 62.4272 117.608 Q60.2282 117.608 57.7745 118.372 Q55.344 119.136 52.5662 120.686 L52.5662 115.964 Q55.3903 114.83 57.8439 114.251 Q60.2976 113.673 62.3347 113.673 Q67.705 113.673 70.8994 116.358 Q74.0939 119.043 74.0939 123.534 Q74.0939 125.663 73.2837 127.585 Q72.4966 129.483 70.3902 132.075 Q69.8115 132.747 66.7096 135.964 Q63.6078 139.159 57.9597 144.922 Z" fill="#000000" fill-rule="nonzero" fill-opacity="1"></path><path clip-path="url(#clip470)" d="M84.0938 142.978 L88.978 142.978 L88.978 148.858 L84.0938 148.858 L84.0938 142.978 Z" fill="#000000" fill-rule="nonzero" fill-opacity="1"></path><path clip-path="url(#clip470)" d="M99.2095 114.298 L117.566 114.298 L117.566 118.233 L103.492 118.233 L103.492 126.705 Q104.51 126.358 105.529 126.196 Q106.547 126.01 107.566 126.01 Q113.353 126.01 116.733 129.182 Q120.112 132.353 120.112 137.77 Q120.112 143.348 116.64 146.45 Q113.168 149.529 106.848 149.529 Q104.672 149.529 102.404 149.158 Q100.159 148.788 97.7511 148.047 L97.7511 143.348 Q99.8345 144.483 102.057 145.038 Q104.279 145.594 106.756 145.594 Q110.76 145.594 113.098 143.487 Q115.436 141.381 115.436 137.77 Q115.436 134.159 113.098 132.052 Q110.76 129.946 106.756 129.946 Q104.881 129.946 103.006 130.362 Q101.154 130.779 99.2095 131.659 L99.2095 114.298 Z" fill="#000000" fill-rule="nonzero" fill-opacity="1"></path><polyline clip-path="url(#clip472)" style="stroke:#009af9; stroke-linecap:round; stroke-linejoin:round; stroke-width:4; stroke-opacity:1; fill:none" points="218.281,1445.72 477.319,1259.59 736.358,1089.84 995.396,929.526 1254.43,772.807 1513.47,614.632 1772.51,450.502 2031.55,276.269 2290.59,87.9763 "></polyline>
<polyline clip-path="url(#clip472)" style="stroke:#e26f46; stroke-linecap:round; stroke-linejoin:round; stroke-width:4; stroke-opacity:1; fill:none" points="218.281,1445.72 347.8,1350.07 477.319,1259.49 606.839,1172.98 736.358,1089.65 865.877,1008.67 995.396,929.277 1124.91,850.78 1254.43,772.527 1383.95,693.911 1513.47,614.357 1642.99,533.318 1772.51,450.27 1902.03,364.705 2031.55,276.127 2161.07,184.046 2290.59,87.9763 "></polyline>
<polyline clip-path="url(#clip472)" style="stroke:#3da44d; stroke-linecap:round; stroke-linejoin:round; stroke-width:4; stroke-opacity:1; fill:none" points="218.281,1445.72 283.041,1397.18 347.8,1350.05 412.56,1304.19 477.319,1259.46 542.079,1215.75 606.839,1172.94 671.598,1130.93 736.358,1089.6 801.117,1048.86 865.877,1008.61 930.636,968.759 995.396,929.214 1060.16,889.893 1124.91,850.713 1189.67,811.593 1254.43,772.458 1319.19,733.231 1383.95,693.841 1448.71,654.216 1513.47,614.288 1578.23,573.989 1642.99,533.253 1707.75,492.016 1772.51,450.212 1837.27,407.78 1902.03,364.657 1966.79,320.781 2031.55,276.091 2096.31,230.527 2161.07,184.026 2225.83,136.53 2290.59,87.9763 "></polyline>
<polyline clip-path="url(#clip472)" style="stroke:#c271d2; stroke-linecap:round; stroke-linejoin:round; stroke-width:4; stroke-opacity:1; fill:none" points="218.281,1445.72 250.661,1421.27 283.041,1397.18 315.421,1373.45 347.8,1350.05 380.18,1326.97 412.56,1304.18 444.94,1281.68 477.319,1259.45 509.699,1237.48 542.079,1215.74 574.459,1194.23 606.839,1172.93 639.218,1151.83 671.598,1130.92 703.978,1110.18 736.358,1089.59 768.737,1069.15 801.117,1048.85 833.497,1028.67 865.877,1008.6 898.257,988.627 930.636,968.744 963.016,948.938 995.396,929.199 1027.78,909.515 1060.16,889.877 1092.54,870.274 1124.91,850.696 1157.29,831.133 1189.67,811.576 1222.05,792.015 1254.43,772.44 1286.81,752.843 1319.19,733.213 1351.57,713.543 1383.95,693.823 1416.33,674.044 1448.71,654.199 1481.09,634.277 1513.47,614.271 1545.85,594.172 1578.23,573.972 1610.61,553.664 1642.99,533.237 1675.37,512.686 1707.75,492 1740.13,471.174 1772.51,450.198 1804.89,429.065 1837.27,407.767 1869.65,386.296 1902.03,364.645 1934.41,342.806 1966.79,320.771 1999.17,298.532 2031.55,276.082 2063.93,253.414 2096.31,230.52 2128.69,207.391 2161.07,184.021 2193.45,160.403 2225.83,136.527 2258.21,112.388 2290.59,87.9763 "></polyline>
<polyline clip-path="url(#clip472)" style="stroke:#ac8d18; stroke-linecap:round; stroke-linejoin:round; stroke-width:4; stroke-opacity:1; fill:none" points="218.281,1445.72 234.471,1433.44 250.661,1421.27 266.851,1409.18 283.041,1397.18 299.231,1385.27 315.421,1373.45 331.61,1361.71 347.8,1350.05 363.99,1338.47 380.18,1326.96 396.37,1315.54 412.56,1304.18 428.75,1292.9 444.94,1281.68 461.13,1270.53 477.319,1259.45 493.509,1248.43 509.699,1237.48 525.889,1226.58 542.079,1215.74 558.269,1204.96 574.459,1194.23 590.649,1183.56 606.839,1172.93 623.028,1162.36 639.218,1151.83 655.408,1141.35 671.598,1130.92 687.788,1120.52 703.978,1110.17 720.168,1099.86 736.358,1089.59 752.548,1079.35 768.737,1069.15 784.927,1058.98 801.117,1048.85 817.307,1038.74 833.497,1028.66 849.687,1018.62 865.877,1008.59 882.067,998.597 898.257,988.623 914.446,978.671 930.636,968.74 946.826,958.828 963.016,948.934 979.206,939.057 995.396,929.195 1011.59,919.347 1027.78,909.511 1043.97,899.687 1060.16,889.873 1076.35,880.068 1092.54,870.27 1108.73,860.479 1124.91,850.692 1141.1,840.909 1157.29,831.129 1173.48,821.351 1189.67,811.572 1205.86,801.792 1222.05,792.011 1238.24,782.226 1254.43,772.436 1270.62,762.641 1286.81,752.838 1303,743.028 1319.19,733.209 1335.38,723.38 1351.57,713.539 1367.76,703.686 1383.95,693.819 1400.14,683.937 1416.33,674.04 1432.52,664.126 1448.71,654.194 1464.9,644.243 1481.09,634.273 1497.28,624.281 1513.47,614.267 1529.66,604.229 1545.85,594.168 1562.04,584.081 1578.23,573.968 1594.42,563.828 1610.61,553.659 1626.8,543.461 1642.99,533.233 1659.18,522.974 1675.37,512.682 1691.56,502.356 1707.75,491.996 1723.94,481.601 1740.13,471.17 1756.32,460.701 1772.51,450.194 1788.7,439.648 1804.89,429.061 1821.08,418.434 1837.27,407.764 1853.46,397.05 1869.65,386.293 1885.84,375.49 1902.03,364.642 1918.22,353.746 1934.41,342.803 1950.6,331.81 1966.79,320.768 1982.98,309.675 1999.17,298.53 2015.36,287.332 2031.55,276.08 2047.74,264.774 2063.93,253.412 2080.12,241.994 2096.31,230.518 2112.5,218.984 2128.69,207.39 2144.88,195.736 2161.07,184.02 2177.26,172.243 2193.45,160.402 2209.64,148.497 2225.83,136.527 2242.02,124.49 2258.21,112.387 2274.4,100.216 2290.59,87.9763 "></polyline>
<polyline clip-path="url(#clip472)" style="stroke:#00a9ad; stroke-linecap:round; stroke-linejoin:round; stroke-width:4; stroke-opacity:1; fill:none" points="218.281,1445.72 234.471,1433.44 250.661,1421.27 266.851,1409.18 283.041,1397.18 299.231,1385.27 315.421,1373.45 331.61,1361.71 347.8,1350.05 363.99,1338.47 380.18,1326.96 396.37,1315.54 412.56,1304.18 428.75,1292.9 444.94,1281.68 461.13,1270.53 477.319,1259.45 493.509,1248.43 509.699,1237.48 525.889,1226.58 542.079,1215.74 558.269,1204.96 574.459,1194.23 590.649,1183.56 606.839,1172.93 623.028,1162.36 639.218,1151.83 655.408,1141.35 671.598,1130.92 687.788,1120.52 703.978,1110.17 720.168,1099.86 736.358,1089.59 752.548,1079.35 768.737,1069.15 784.927,1058.98 801.117,1048.84 817.307,1038.74 833.497,1028.66 849.687,1018.62 865.877,1008.59 882.067,998.596 898.257,988.622 914.446,978.67 930.636,968.739 946.826,958.827 963.016,948.933 979.206,939.056 995.396,929.194 1011.59,919.346 1027.78,909.51 1043.97,899.686 1060.16,889.872 1076.35,880.066 1092.54,870.269 1108.73,860.477 1124.91,850.691 1141.1,840.908 1157.29,831.128 1173.48,821.349 1189.67,811.571 1205.86,801.791 1222.05,792.009 1238.24,782.224 1254.43,772.434 1270.62,762.639 1286.81,752.837 1303,743.027 1319.19,733.208 1335.38,723.378 1351.57,713.537 1367.76,703.684 1383.95,693.817 1400.14,683.936 1416.33,674.039 1432.52,664.125 1448.71,654.193 1464.9,644.242 1481.09,634.271 1497.28,624.279 1513.47,614.265 1529.66,604.228 1545.85,594.166 1562.04,584.08 1578.23,573.967 1594.42,563.827 1610.61,553.658 1626.8,543.46 1642.99,533.232 1659.18,522.972 1675.37,512.68 1691.56,502.355 1707.75,491.995 1723.94,481.6 1740.13,471.169 1756.32,460.7 1772.51,450.193 1788.7,439.647 1804.89,429.06 1821.08,418.432 1837.27,407.762 1853.46,397.049 1869.65,386.292 1885.84,375.489 1902.03,364.641 1918.22,353.745 1934.41,342.802 1950.6,331.809 1966.79,320.767 1982.98,309.674 1999.17,298.529 2015.36,287.331 2031.55,276.079 2047.74,264.773 2063.93,253.412 2080.12,241.993 2096.31,230.517 2112.5,218.983 2128.69,207.389 2144.88,195.735 2161.07,184.02 2177.26,172.242 2193.45,160.401 2209.64,148.496 2225.83,136.526 2242.02,124.49 2258.21,112.387 2274.4,100.216 2290.59,87.9763 "></polyline>
<path clip-path="url(#clip470)" d="M229.334 458.098 L605.085 458.098 L605.085 95.2176 L229.334 95.2176  Z" fill="#ffffff" fill-rule="evenodd" fill-opacity="1"></path>
<polyline clip-path="url(#clip470)" style="stroke:#000000; stroke-linecap:round; stroke-linejoin:round; stroke-width:4; stroke-opacity:1; fill:none" points="229.334,458.098 605.085,458.098 605.085,95.2176 229.334,95.2176 229.334,458.098 "></polyline>
<polyline clip-path="url(#clip470)" style="stroke:#009af9; stroke-linecap:round; stroke-linejoin:round; stroke-width:4; stroke-opacity:1; fill:none" points="253.741,147.058 400.184,147.058 "></polyline>
<path clip-path="url(#clip470)" d="M446.304 148.689 L446.304 164.338 L442.044 164.338 L442.044 148.828 Q442.044 145.148 440.609 143.319 Q439.174 141.49 436.304 141.49 Q432.855 141.49 430.864 143.69 Q428.873 145.889 428.873 149.685 L428.873 164.338 L424.591 164.338 L424.591 138.412 L428.873 138.412 L428.873 142.44 Q430.401 140.102 432.461 138.944 Q434.544 137.787 437.253 137.787 Q441.72 137.787 444.012 140.565 Q446.304 143.319 446.304 148.689 Z" fill="#000000" fill-rule="nonzero" fill-opacity="1"></path><path clip-path="url(#clip470)" d="M455.355 142.81 L485.03 142.81 L485.03 146.699 L455.355 146.699 L455.355 142.81 M455.355 152.254 L485.03 152.254 L485.03 156.189 L455.355 156.189 L455.355 152.254 Z" fill="#000000" fill-rule="nonzero" fill-opacity="1"></path><path clip-path="url(#clip470)" d="M505.123 147.926 Q501.789 147.926 499.868 149.708 Q497.97 151.49 497.97 154.615 Q497.97 157.74 499.868 159.523 Q501.789 161.305 505.123 161.305 Q508.456 161.305 510.377 159.523 Q512.299 157.717 512.299 154.615 Q512.299 151.49 510.377 149.708 Q508.479 147.926 505.123 147.926 M500.447 145.935 Q497.438 145.194 495.748 143.134 Q494.081 141.074 494.081 138.111 Q494.081 133.967 497.021 131.56 Q499.984 129.153 505.123 129.153 Q510.285 129.153 513.225 131.56 Q516.164 133.967 516.164 138.111 Q516.164 141.074 514.475 143.134 Q512.808 145.194 509.822 145.935 Q513.201 146.722 515.076 149.014 Q516.975 151.305 516.975 154.615 Q516.975 159.639 513.896 162.324 Q510.84 165.009 505.123 165.009 Q499.405 165.009 496.327 162.324 Q493.271 159.639 493.271 154.615 Q493.271 151.305 495.169 149.014 Q497.067 146.722 500.447 145.935 M498.734 138.551 Q498.734 141.236 500.401 142.74 Q502.09 144.245 505.123 144.245 Q508.132 144.245 509.822 142.74 Q511.535 141.236 511.535 138.551 Q511.535 135.865 509.822 134.361 Q508.132 132.856 505.123 132.856 Q502.09 132.856 500.401 134.361 Q498.734 135.865 498.734 138.551 Z" fill="#000000" fill-rule="nonzero" fill-opacity="1"></path><polyline clip-path="url(#clip470)" style="stroke:#e26f46; stroke-linecap:round; stroke-linejoin:round; stroke-width:4; stroke-opacity:1; fill:none" points="253.741,198.898 400.184,198.898 "></polyline>
<path clip-path="url(#clip470)" d="M446.304 200.529 L446.304 216.178 L442.044 216.178 L442.044 200.668 Q442.044 196.988 440.609 195.159 Q439.174 193.33 436.304 193.33 Q432.855 193.33 430.864 195.53 Q428.873 197.729 428.873 201.525 L428.873 216.178 L424.591 216.178 L424.591 190.252 L428.873 190.252 L428.873 194.28 Q430.401 191.942 432.461 190.784 Q434.544 189.627 437.253 189.627 Q441.72 189.627 444.012 192.405 Q446.304 195.159 446.304 200.529 Z" fill="#000000" fill-rule="nonzero" fill-opacity="1"></path><path clip-path="url(#clip470)" d="M455.355 194.65 L485.03 194.65 L485.03 198.539 L455.355 198.539 L455.355 194.65 M455.355 204.094 L485.03 204.094 L485.03 208.029 L455.355 208.029 L455.355 204.094 Z" fill="#000000" fill-rule="nonzero" fill-opacity="1"></path><path clip-path="url(#clip470)" d="M495.933 212.242 L503.572 212.242 L503.572 185.877 L495.262 187.543 L495.262 183.284 L503.526 181.618 L508.201 181.618 L508.201 212.242 L515.84 212.242 L515.84 216.178 L495.933 216.178 L495.933 212.242 Z" fill="#000000" fill-rule="nonzero" fill-opacity="1"></path><path clip-path="url(#clip470)" d="M535.863 197.034 Q532.715 197.034 530.863 199.187 Q529.035 201.34 529.035 205.09 Q529.035 208.816 530.863 210.992 Q532.715 213.145 535.863 213.145 Q539.011 213.145 540.84 210.992 Q542.692 208.816 542.692 205.09 Q542.692 201.34 540.84 199.187 Q539.011 197.034 535.863 197.034 M545.146 182.381 L545.146 186.641 Q543.386 185.807 541.581 185.368 Q539.799 184.928 538.039 184.928 Q533.41 184.928 530.956 188.053 Q528.525 191.178 528.178 197.497 Q529.544 195.483 531.604 194.418 Q533.664 193.33 536.141 193.33 Q541.349 193.33 544.359 196.502 Q547.391 199.65 547.391 205.09 Q547.391 210.414 544.243 213.631 Q541.095 216.849 535.863 216.849 Q529.868 216.849 526.697 212.266 Q523.525 207.659 523.525 198.932 Q523.525 190.738 527.414 185.877 Q531.303 180.993 537.854 180.993 Q539.613 180.993 541.396 181.34 Q543.201 181.687 545.146 182.381 Z" fill="#000000" fill-rule="nonzero" fill-opacity="1"></path><polyline clip-path="url(#clip470)" style="stroke:#3da44d; stroke-linecap:round; stroke-linejoin:round; stroke-width:4; stroke-opacity:1; fill:none" points="253.741,250.738 400.184,250.738 "></polyline>
<path clip-path="url(#clip470)" d="M446.304 252.369 L446.304 268.018 L442.044 268.018 L442.044 252.508 Q442.044 248.828 440.609 246.999 Q439.174 245.17 436.304 245.17 Q432.855 245.17 430.864 247.37 Q428.873 249.569 428.873 253.365 L428.873 268.018 L424.591 268.018 L424.591 242.092 L428.873 242.092 L428.873 246.12 Q430.401 243.782 432.461 242.624 Q434.544 241.467 437.253 241.467 Q441.72 241.467 444.012 244.245 Q446.304 246.999 446.304 252.369 Z" fill="#000000" fill-rule="nonzero" fill-opacity="1"></path><path clip-path="url(#clip470)" d="M455.355 246.49 L485.03 246.49 L485.03 250.379 L455.355 250.379 L455.355 246.49 M455.355 255.934 L485.03 255.934 L485.03 259.869 L455.355 259.869 L455.355 255.934 Z" fill="#000000" fill-rule="nonzero" fill-opacity="1"></path><path clip-path="url(#clip470)" d="M509.289 249.383 Q512.646 250.101 514.521 252.369 Q516.419 254.638 516.419 257.971 Q516.419 263.087 512.901 265.888 Q509.382 268.689 502.901 268.689 Q500.725 268.689 498.41 268.249 Q496.118 267.832 493.665 266.976 L493.665 262.462 Q495.609 263.596 497.924 264.175 Q500.239 264.754 502.762 264.754 Q507.16 264.754 509.451 263.018 Q511.766 261.281 511.766 257.971 Q511.766 254.916 509.614 253.203 Q507.484 251.467 503.664 251.467 L499.637 251.467 L499.637 247.624 L503.85 247.624 Q507.299 247.624 509.127 246.258 Q510.956 244.87 510.956 242.277 Q510.956 239.615 509.058 238.203 Q507.183 236.768 503.664 236.768 Q501.743 236.768 499.544 237.184 Q497.345 237.601 494.706 238.481 L494.706 234.314 Q497.368 233.573 499.683 233.203 Q502.021 232.833 504.081 232.833 Q509.405 232.833 512.507 235.263 Q515.609 237.67 515.609 241.791 Q515.609 244.661 513.965 246.652 Q512.322 248.62 509.289 249.383 Z" fill="#000000" fill-rule="nonzero" fill-opacity="1"></path><path clip-path="url(#clip470)" d="M529.312 264.082 L545.632 264.082 L545.632 268.018 L523.688 268.018 L523.688 264.082 Q526.35 261.328 530.933 256.698 Q535.539 252.045 536.72 250.703 Q538.965 248.18 539.845 246.444 Q540.748 244.684 540.748 242.995 Q540.748 240.24 538.803 238.504 Q536.882 236.768 533.78 236.768 Q531.581 236.768 529.127 237.532 Q526.697 238.295 523.919 239.846 L523.919 235.124 Q526.743 233.99 529.197 233.411 Q531.65 232.833 533.687 232.833 Q539.058 232.833 542.252 235.518 Q545.447 238.203 545.447 242.694 Q545.447 244.823 544.636 246.745 Q543.849 248.643 541.743 251.235 Q541.164 251.907 538.062 255.124 Q534.961 258.319 529.312 264.082 Z" fill="#000000" fill-rule="nonzero" fill-opacity="1"></path><polyline clip-path="url(#clip470)" style="stroke:#c271d2; stroke-linecap:round; stroke-linejoin:round; stroke-width:4; stroke-opacity:1; fill:none" points="253.741,302.578 400.184,302.578 "></polyline>
<path clip-path="url(#clip470)" d="M446.304 304.209 L446.304 319.858 L442.044 319.858 L442.044 304.348 Q442.044 300.668 440.609 298.839 Q439.174 297.01 436.304 297.01 Q432.855 297.01 430.864 299.21 Q428.873 301.409 428.873 305.205 L428.873 319.858 L424.591 319.858 L424.591 293.932 L428.873 293.932 L428.873 297.96 Q430.401 295.622 432.461 294.464 Q434.544 293.307 437.253 293.307 Q441.72 293.307 444.012 296.085 Q446.304 298.839 446.304 304.209 Z" fill="#000000" fill-rule="nonzero" fill-opacity="1"></path><path clip-path="url(#clip470)" d="M455.355 298.33 L485.03 298.33 L485.03 302.219 L455.355 302.219 L455.355 298.33 M455.355 307.774 L485.03 307.774 L485.03 311.709 L455.355 311.709 L455.355 307.774 Z" fill="#000000" fill-rule="nonzero" fill-opacity="1"></path><path clip-path="url(#clip470)" d="M505.701 300.714 Q502.553 300.714 500.702 302.867 Q498.873 305.02 498.873 308.77 Q498.873 312.496 500.702 314.672 Q502.553 316.825 505.701 316.825 Q508.85 316.825 510.678 314.672 Q512.53 312.496 512.53 308.77 Q512.53 305.02 510.678 302.867 Q508.85 300.714 505.701 300.714 M514.984 286.061 L514.984 290.321 Q513.225 289.487 511.419 289.048 Q509.637 288.608 507.877 288.608 Q503.248 288.608 500.794 291.733 Q498.364 294.858 498.016 301.177 Q499.382 299.163 501.442 298.098 Q503.502 297.01 505.979 297.01 Q511.188 297.01 514.197 300.182 Q517.229 303.33 517.229 308.77 Q517.229 314.094 514.081 317.311 Q510.933 320.529 505.701 320.529 Q499.706 320.529 496.535 315.946 Q493.364 311.339 493.364 302.612 Q493.364 294.418 497.252 289.557 Q501.141 284.673 507.692 284.673 Q509.451 284.673 511.234 285.02 Q513.039 285.367 514.984 286.061 Z" fill="#000000" fill-rule="nonzero" fill-opacity="1"></path><path clip-path="url(#clip470)" d="M538.132 289.372 L526.326 307.821 L538.132 307.821 L538.132 289.372 M536.905 285.298 L542.785 285.298 L542.785 307.821 L547.715 307.821 L547.715 311.709 L542.785 311.709 L542.785 319.858 L538.132 319.858 L538.132 311.709 L522.53 311.709 L522.53 307.196 L536.905 285.298 Z" fill="#000000" fill-rule="nonzero" fill-opacity="1"></path><polyline clip-path="url(#clip470)" style="stroke:#ac8d18; stroke-linecap:round; stroke-linejoin:round; stroke-width:4; stroke-opacity:1; fill:none" points="253.741,354.418 400.184,354.418 "></polyline>
<path clip-path="url(#clip470)" d="M446.304 356.049 L446.304 371.698 L442.044 371.698 L442.044 356.188 Q442.044 352.508 440.609 350.679 Q439.174 348.85 436.304 348.85 Q432.855 348.85 430.864 351.05 Q428.873 353.249 428.873 357.045 L428.873 371.698 L424.591 371.698 L424.591 345.772 L428.873 345.772 L428.873 349.8 Q430.401 347.462 432.461 346.304 Q434.544 345.147 437.253 345.147 Q441.72 345.147 444.012 347.925 Q446.304 350.679 446.304 356.049 Z" fill="#000000" fill-rule="nonzero" fill-opacity="1"></path><path clip-path="url(#clip470)" d="M455.355 350.17 L485.03 350.17 L485.03 354.059 L455.355 354.059 L455.355 350.17 M455.355 359.614 L485.03 359.614 L485.03 363.549 L455.355 363.549 L455.355 359.614 Z" fill="#000000" fill-rule="nonzero" fill-opacity="1"></path><path clip-path="url(#clip470)" d="M495.933 367.762 L503.572 367.762 L503.572 341.397 L495.262 343.063 L495.262 338.804 L503.526 337.138 L508.201 337.138 L508.201 367.762 L515.84 367.762 L515.84 371.698 L495.933 371.698 L495.933 367.762 Z" fill="#000000" fill-rule="nonzero" fill-opacity="1"></path><path clip-path="url(#clip470)" d="M529.312 367.762 L545.632 367.762 L545.632 371.698 L523.688 371.698 L523.688 367.762 Q526.35 365.008 530.933 360.378 Q535.539 355.725 536.72 354.383 Q538.965 351.86 539.845 350.124 Q540.748 348.364 540.748 346.675 Q540.748 343.92 538.803 342.184 Q536.882 340.448 533.78 340.448 Q531.581 340.448 529.127 341.212 Q526.697 341.975 523.919 343.526 L523.919 338.804 Q526.743 337.67 529.197 337.091 Q531.65 336.513 533.687 336.513 Q539.058 336.513 542.252 339.198 Q545.447 341.883 545.447 346.374 Q545.447 348.503 544.636 350.425 Q543.849 352.323 541.743 354.915 Q541.164 355.587 538.062 358.804 Q534.961 361.999 529.312 367.762 Z" fill="#000000" fill-rule="nonzero" fill-opacity="1"></path><path clip-path="url(#clip470)" d="M565.447 355.286 Q562.113 355.286 560.192 357.068 Q558.294 358.85 558.294 361.975 Q558.294 365.1 560.192 366.883 Q562.113 368.665 565.447 368.665 Q568.78 368.665 570.701 366.883 Q572.622 365.077 572.622 361.975 Q572.622 358.85 570.701 357.068 Q568.803 355.286 565.447 355.286 M560.771 353.295 Q557.761 352.554 556.072 350.494 Q554.405 348.434 554.405 345.471 Q554.405 341.327 557.345 338.92 Q560.308 336.513 565.447 336.513 Q570.609 336.513 573.548 338.92 Q576.488 341.327 576.488 345.471 Q576.488 348.434 574.798 350.494 Q573.132 352.554 570.146 353.295 Q573.525 354.082 575.4 356.374 Q577.298 358.665 577.298 361.975 Q577.298 366.999 574.22 369.684 Q571.164 372.369 565.447 372.369 Q559.729 372.369 556.65 369.684 Q553.595 366.999 553.595 361.975 Q553.595 358.665 555.493 356.374 Q557.391 354.082 560.771 353.295 M559.058 345.911 Q559.058 348.596 560.724 350.1 Q562.414 351.605 565.447 351.605 Q568.456 351.605 570.146 350.1 Q571.859 348.596 571.859 345.911 Q571.859 343.225 570.146 341.721 Q568.456 340.216 565.447 340.216 Q562.414 340.216 560.724 341.721 Q559.058 343.225 559.058 345.911 Z" fill="#000000" fill-rule="nonzero" fill-opacity="1"></path><polyline clip-path="url(#clip470)" style="stroke:#00a9ad; stroke-linecap:round; stroke-linejoin:round; stroke-width:4; stroke-opacity:1; fill:none" points="253.741,406.258 400.184,406.258 "></polyline>
<path clip-path="url(#clip470)" d="M424.591 387.519 L434.406 387.519 L434.406 390.829 L428.85 390.829 L428.85 426.477 L434.406 426.477 L434.406 429.788 L424.591 429.788 L424.591 387.519 Z" fill="#000000" fill-rule="nonzero" fill-opacity="1"></path><path clip-path="url(#clip470)" d="M447.507 388.978 L447.507 401.825 L443.572 401.825 L443.572 388.978 L447.507 388.978 M456.257 388.978 L456.257 401.825 L452.322 401.825 L452.322 388.978 L456.257 388.978 Z" fill="#000000" fill-rule="nonzero" fill-opacity="1"></path><path clip-path="url(#clip470)" d="M486.836 397.612 L477.461 410.227 L487.322 423.538 L482.299 423.538 L474.753 413.352 L467.206 423.538 L462.183 423.538 L472.253 409.973 L463.04 397.612 L468.063 397.612 L474.938 406.848 L481.813 397.612 L486.836 397.612 Z" fill="#000000" fill-rule="nonzero" fill-opacity="1"></path><path clip-path="url(#clip470)" d="M503.572 387.566 Q500.47 392.89 498.965 398.098 Q497.461 403.306 497.461 408.653 Q497.461 414.001 498.965 419.255 Q500.493 424.487 503.572 429.788 L499.868 429.788 Q496.396 424.348 494.66 419.093 Q492.947 413.839 492.947 408.653 Q492.947 403.491 494.66 398.26 Q496.373 393.028 499.868 387.566 L503.572 387.566 Z" fill="#000000" fill-rule="nonzero" fill-opacity="1"></path><path clip-path="url(#clip470)" d="M516.049 390.251 L516.049 397.612 L524.822 397.612 L524.822 400.922 L516.049 400.922 L516.049 414.996 Q516.049 418.167 516.905 419.07 Q517.785 419.973 520.447 419.973 L524.822 419.973 L524.822 423.538 L520.447 423.538 Q515.516 423.538 513.641 421.709 Q511.766 419.857 511.766 414.996 L511.766 400.922 L508.641 400.922 L508.641 397.612 L511.766 397.612 L511.766 390.251 L516.049 390.251 Z" fill="#000000" fill-rule="nonzero" fill-opacity="1"></path><path clip-path="url(#clip470)" d="M529.752 387.566 L533.456 387.566 Q536.928 393.028 538.641 398.26 Q540.377 403.491 540.377 408.653 Q540.377 413.839 538.641 419.093 Q536.928 424.348 533.456 429.788 L529.752 429.788 Q532.831 424.487 534.336 419.255 Q535.863 414.001 535.863 408.653 Q535.863 403.306 534.336 398.098 Q532.831 392.89 529.752 387.566 Z" fill="#000000" fill-rule="nonzero" fill-opacity="1"></path><path clip-path="url(#clip470)" d="M552.947 388.978 L552.947 401.825 L549.011 401.825 L549.011 388.978 L552.947 388.978 M561.697 388.978 L561.697 401.825 L557.761 401.825 L557.761 388.978 L561.697 388.978 Z" fill="#000000" fill-rule="nonzero" fill-opacity="1"></path><path clip-path="url(#clip470)" d="M580.678 387.519 L580.678 429.788 L570.863 429.788 L570.863 426.477 L576.396 426.477 L576.396 390.829 L570.863 390.829 L570.863 387.519 L580.678 387.519 Z" fill="#000000" fill-rule="nonzero" fill-opacity="1"></path></svg>